<svg width="137" height="138" viewBox="0 0 137 138" fill="none" xmlns="http://www.w3.org/2000/svg">
<path d="M38.5002 8.80005C42.2002 12.2 42.6002 16.8 43.5002 21.2C46.7002 35.6 53.0002 40.8 67.8002 41.4C72.3002 41.6 77.0002 42 81.4002 43.1C87.8002 44.6 89.8002 49.5 85.5002 54.2C76.6002 63.8 73.0002 75.8 68.8002 87.5C66.7002 93.5 64.1002 99.2 59.9002 104.2C55.5002 109.4 53.0002 115.8 50.4002 122C49.3002 124.8 47.6002 128 44.0002 126.9C40.1002 125.7 40.3002 121.8 41.3002 118.8C46.3002 103.1 41.2002 91.3 27.8002 82.4C23.3002 79.4 19.9002 75.1001 18.3002 69.8C17.9002 68.5 17.4002 66.9 16.4002 66.2C8.90018 60.9 10.1002 53.7001 11.7002 46.3C13.2002 39.8 14.6002 33.2 16.3002 25.4C17.7002 29.1 17.1002 31.5 16.6002 33.9C15.4002 39.5 13.9002 45.1 12.8002 50.8C11.9002 55.7001 14.0002 59.3 16.4002 63.8C21.9002 74.1001 30.5002 81.1 38.3002 89.1C45.2002 96.2 47.3002 105.8 44.3002 115.8C44.2002 116.2 44.0002 116.6 44.0002 116.9C43.7002 119.6 41.9002 123.4 44.9002 124.4C48.4002 125.6 48.4002 121 49.6002 118.8C51.5002 115.3 52.7002 111.3 55.1002 108.2C62.8002 98.5 67.1002 87.3 71.0002 75.7C73.6002 68 77.2002 60.7 82.8002 54.5C87.3002 49.5 85.9002 46.2 79.2002 44.5C74.9002 43.4 70.5002 43.8 66.1002 43.7C54.2002 43.4 46.6002 37.9 43.2002 26.5C41.2002 20.7 40.0002 14.7 38.5002 8.80005Z" fill="#FFBE98"/>
<path d="M46.6001 4.40002C49.8001 9.10002 51.1001 14.7 52.8001 20C56.5001 32 58.8001 34 71.1001 32.5C80.7001 31.3 90.2001 28.9 99.8001 27.4C103.7 26.8 107.7 26.8 111.7 26.8C114.7 26.8 117.9 27.2 119.3 30.5C120.8 34.1 118.1 36.4 115.9 38.7C115.1 39.6 114.2 40.3 113.2 41C95.8001 53.3 84.6001 70.1001 78.4001 90.3C75.6001 99.2001 71.8001 107.4 66.1001 114.7C61.3001 121 58.6001 128.5 54.1001 134.9C54.9001 128.7 57.6001 123.2 61.1001 118.4C68.9001 107.6 74.3001 95.9 78.5001 83.3C84.3001 66.1 94.8001 52.1 109.4 41.1C112.6 38.7 118.1 36.6 116.5 31.9C114.8 27.2 109.2 29.6 105.3 29.5C93.8001 29.2 83.0001 33.4 71.8001 35C59.4001 36.8 54.5001 34.1 51.1001 22C49.4001 16.2 46.6001 10.7 46.6001 4.40002Z" fill="#FFBE98"/>
<path d="M23.9001 17.8C24.7001 26.1 22.5001 32.5 21.4001 39C19.2001 51.2 22.1001 61.8 29.8001 71.3C35.1001 77.8 41.0001 83.7 47.1001 89.4C52.3001 94.2 56.5001 93.7 59.4001 87.4C64.0001 77.5 68.1001 67.4 73.4001 57.8C75.6001 53.8 74.1001 50.5 69.0001 49.6C65.7001 49 62.4001 48.1 59.2001 47.1C43.8001 42.3 33.5001 27.2 34.5001 10.6C36.7001 11.6 36.1001 13.6 36.4001 15.2C39.4001 32.5 48.5001 43.9 66.4001 47C68.2001 47.3 69.9001 47.8 71.6001 48.2C76.1001 49.2 77.3001 52.1 76.0001 56.2C75.5001 57.9 75.0001 59.7 74.0001 61.2C69.2001 68.8 65.9001 77.1 62.6001 85.4C58.2001 96.4 52.5001 97.4 43.9001 89.1C40.7001 86.1 37.8001 82.8 34.6001 79.9C19.5001 66.1 15.8001 49.2 20.8001 29.9C21.8001 26.4 21.4001 22.5 23.9001 17.8Z" fill="#FFBE98"/>
<path d="M49.1002 132.9C50.6002 125.8 53.1002 119.1 57.5002 113.5C65.3002 103.5 71.1002 92.6001 74.7002 80.3C78.1002 68.7001 84.1002 58.4 92.5002 49.6C95.1002 46.9 99.3002 43.9 97.2002 39.5C94.9002 34.7 90.2002 37.2 86.5002 37.8C79.4002 39 72.3002 39.3 65.1002 39C57.2002 38.7 51.2002 35.1 48.5002 27.6C46.1002 20.8 44.6001 13.7 43.4001 6.60004C46.6001 10.7 47.1002 15.6 48.2002 20.3C51.2002 33 56.9002 37.8 70.1002 37.4C76.4002 37.2 82.7002 35.9 89.1002 35.3C92.6002 35 96.6001 34.1 98.9001 37.8C101.3 41.7001 99.2002 45.4 96.5002 48.1C84.7002 59.9 78.2002 74.5 73.6002 90.1C73.5002 90.3 73.5001 90.5 73.4001 90.7C67.6001 106.1 54.7002 117.3 49.1002 132.9Z" fill="#FFBE98"/>
<path d="M61.3 134.4C60.5 134.8 59.9 136.3 58.9 135.7C57.8 135 58.6 133.9 59.1 133.1C62.4 127.6 65.5 122.1 69 116.8C76.4 105.6 82.7 94.1 85.6 80.8C87.2 73.1 91.4 66.4 96.7 60.6C105.8 50.5 117.1 43.4 129.2 37.5C127.6 40.6 124.4 41.8 121.7 43.5C107 52.7 92.6 62.6 88.1 80.4C84 96.6 75.8 110.4 66.8 124.1C64.5 127.3 62.1 130.5 61.3 134.4Z" fill="#FFBE98"/>
<path d="M92.3002 87.9C97.0002 73.3 107.6 63.6 119.9 55.5C126.6 51.2 130.5 50.9 135.4 53.7C122.2 52.9 114.4 61.6 106.3 69.2C102.3 73 97.3002 76.8 97.0002 83.3C96.6002 84.3 96.3002 85.4 95.9002 86.4C90.9002 101.6 85.1002 116.4 73.7002 128.2C73.3002 128.6 73.3002 129.3 73.1002 129.9C72.4002 130.9 71.7002 131.9 70.9002 132.9C68.8002 133.6 68.3002 136.4 64.7002 136.7C75.2002 122.3 87.9002 110 91.2002 92.4C91.5002 90.9 91.9002 89.4 92.3002 87.9Z" fill="#FFBE98"/>
<path d="M70.9001 133C71.6001 132 72.3001 131 73.1001 130C87.1001 118.8 93.7001 103.8 95.9001 86.5C96.3001 85.5 96.6001 84.4 97.0001 83.4C103 74.8 110.2 67.5 119 61.7C125.8 57.3 130.2 57.4001 136.1 62.8001C129.4 59.5001 123.5 60.4 117.8 64.9C108.4 72.2 99.3001 79.7 97.2001 92.4C94.1001 110.6 83.4001 124.1 70.9001 136.8C69.3001 135.4 71.0001 134.2 70.9001 133Z" fill="#FFBE98"/>
<path d="M67.2001 57C64.3001 68.9 59.6 76.8 46.5 70.3C41.9 68 37.3 65.6 33.5 62C27.6 56.3 26.3 49.4 28.6 41.7C30.1 36.5 33.8001 34.7 38.2001 37.6C46.3001 43 54.5 48.1 63.8 51.3C66.1 52.1 67.4001 54.3 67.2001 57ZM29.4 47.2C29.6 56.7 34.6 62.5 46.9 68.2C56.8 72.7 60.6001 70.9 64.2001 60.5C65.8001 55.9 64.5 53.2 60 51.8C52.9 49.6 46.5 46.1 40.6 41.5C38.3 39.7 35.5 37.7 32.4 39.6C29.7 41.4 29.7 44.7 29.4 47.2Z" fill="#FFBE98"/>
<path d="M31.8999 127C33.3999 120.5 35.0999 115.3 34.9999 109.8C34.8999 99.5 31.1999 90.8 22.6999 85.3C13.3999 79.3 10.4999 68.9 3.79992 61.2C3.09992 60.4 2.89995 58.9 3.19995 57.8C4.89995 50.3 6.79994 42.8 8.59994 35.4C9.19994 35.5 9.79993 35.6 10.3999 35.7C9.39993 40.2 8.79992 44.9 7.29992 49.3C4.99992 55.8 6.09995 60.7 10.1999 66.8C15.0999 74.2001 20.1999 80.7001 27.1999 86.3C37.4999 94.5 41.0999 113.2 31.8999 127Z" fill="#FFBE98"/>
<path d="M136.7 69.7001C128.7 67.8001 121.7 69.1 115.8 74.9C111.1 79.6 107.2 84.7 104 90.6C101.1 96.1 99.2001 102 97.5001 107.8C93.8001 120.2 85.1001 128.7 75.6001 137.3C76.5001 133.7 76.3001 133.5 79.2001 130.9C88.2001 122.9 94.0001 113 97.2001 101.3C100.3 90.0001 106.6 80.3001 115.3 72.3001C122 66.2001 130.4 65.0001 136.7 69.7001Z" fill="#FFBE98"/>
<path d="M92.3002 87.9C91.9002 89.4 91.6002 90.9 91.2002 92.4C84.0002 107 75.1002 120.6 65.0002 133.3C63.4002 135.3 63.4002 135.4 61.3002 134.3L61.2002 134.4C74.1002 118.3 86.6002 102.1 91.5002 81.3C93.7002 72.2 99.7002 65.2 107.4 59.8C107.7 60.1 107.9 60.4 108.2 60.6C100.7 68.5 93.0002 76.2 92.3002 87.9Z" fill="#FFBE98"/>
<path d="M118.2 22.4C106 23 94.0002 24 82.2002 27C81.2002 27.2 80.3001 27.4 79.3001 27.7C63.7001 31.8 57.8002 28.5 53.6002 12.9C52.8002 9.90002 52.3001 6.90004 51.4001 3.10004C54.9001 5.00004 54.1001 7.70005 54.8001 9.80005C56.0001 13.8 57.0002 17.8 59.2002 21.5C62.2002 26.5 66.3002 28.7 72.2002 27.3C83.6002 24.6 95.0001 22 106.8 21.4C110.7 21.1 114.5 20.6 118.2 22.4Z" fill="#FFBE98"/>
<path d="M135.4 76.3001C119.3 78.2001 106.7 90.1 101.7 109.6C98.8001 120.9 93.0001 129.7 83.1001 136.1C83.0001 135.3 82.8001 134.8 82.9001 134.7C92.9001 126.9 97.9001 116.3 101.4 104.3C104.2 94.7001 110.8 86.8 117.7 79.6C122.6 74.6 128.9 73.4001 135.4 76.3001Z" fill="#FFBE98"/>
<path d="M57.5001 1.80005C58.5001 5.40005 59.4001 8.90003 60.4001 12.5C62.6001 20.4 66.4001 23 74.4001 21.8C79.3001 21 84.1 19.6 88.8 18.1C97.1 15.5 105.4 15.2 114 17.6C113.6 18.1 113.4 18.6 113.2 18.5C100 16.8 87.7001 20.9 75.2001 23.7C66.2001 25.7 61.3001 22.5 58.6001 13.7C57.5001 10 56.7 6.10005 55.8 2.30005C56.4 2.10005 56.9001 2.00005 57.5001 1.80005Z" fill="#FFBE98"/>
<path d="M0.800049 70.1C2.60005 69.5 3.50005 70.7 3.90005 71.6C7.60005 80.4 15.6 85.4 21.8 92C30 100.8 32.6001 110.9 28.9001 122.7C26.6001 122.2 27.3001 120.7 27.5001 119.8C30.6001 106.7 24.9 97 15.3 89.1C9.00005 83.7 4.20005 77.5 0.800049 70.1Z" fill="#FFBE98"/>
<path d="M97.1001 130.8C102 117.7 108.3 105.4 117.3 94.6C121.5 89.5 125.6 83.7 134.4 85.9C118.2 89.7 113.8 104 106.2 115.2C102.8 120.1 101.9 126.6 97.1001 130.8Z" fill="#FFBE98"/>
<path d="M107.9 13.4C97.7002 12.5 88.0002 16.2001 77.9002 16.3001C69.1002 16.4001 63.3002 11.2001 61.7002 2.20005C62.0002 2.20005 62.6002 2.10005 62.7002 2.20005C70.1002 14.9001 72.3002 15.9001 87.2002 13.3001C94.1002 12.1001 100.9 10.7 107.9 13.4Z" fill="#FFBE98"/>
<path d="M102.3 9.00003C82.7001 13.2 74.8001 11.2 69.1001 0.400024C77.9001 12.8 90.7001 8.20003 102.3 9.00003Z" fill="#FFBE98"/>
<path d="M109.2 122.9C116.9 114.6 122.8 104.7 130.8 96.6C124.5 106.1 118.9 116.1 109.2 122.9Z" fill="#FFBE98"/>
<path d="M107.4 59.9C114.7 53 122.9 47.6 132.4 44.4C124 49.4 116.3 55.4 108.2 60.8C107.9 60.5 107.7 60.2 107.4 59.9Z" fill="#FFBE98"/>
<path d="M20.7001 116.3C17.3001 109.3 11.4 104 7.30005 97.4C13.2 102.7 19.5001 107.7 20.7001 116.3Z" fill="#FFBE98"/>
<path d="M79.7002 0.900024C84.1002 2.10002 88.5002 3.30003 94.4002 5.00003C87.6002 6.10003 83.0002 5.60002 79.7002 0.900024Z" fill="#FFBE98"/>
<path d="M51.3001 62.8C44.2001 62.9 36.7001 57.1 35.6001 50.6C35.3001 48.8 35.2001 47 36.8001 45.7C38.5001 44.3 40.2001 44.9 41.8001 45.9C46.4001 48.7 50.8001 51.7 56.0001 53.2C58.1001 53.8 59.2001 55.5 58.6001 57.9C57.5001 61.5 54.8001 62.8 51.3001 62.8ZM51.3001 60.9C53.3001 60.8 55.2001 60.2 55.8001 57.9C56.4001 55.6 54.6001 54.8 52.8001 54.3C49.1001 53.2 45.9001 51.2 42.8001 49.1C41.5001 48.2 40.0001 46.9 38.5001 48.2C36.8001 49.6 37.8001 51.5 38.6001 53.1C41.2001 58.1 45.7001 60.3 51.3001 60.9Z" fill="#FFBE98"/>
</svg>
